<svg id="svg" version="1.1" xmlns="http://www.w3.org/2000/svg" xmlns:xlink="http://www.w3.org/1999/xlink" width="400" height="300.3891050583658" viewBox="0, 0, 400,300.3891050583658"><g id="svgg"><path id="path0" d="M55.297 9.456 C 55.297 10.190,55.267 10.198,52.216 10.282 C 49.281 10.364,49.131 10.400,49.040 11.044 C 48.955 11.641,48.770 11.721,47.462 11.721 C 46.082 11.721,45.980 11.772,45.980 12.472 C 45.980 13.211,45.940 13.223,43.576 13.223 C 41.212 13.223,41.172 13.236,41.172 13.974 C 41.172 14.576,41.022 14.726,40.421 14.726 C 39.820 14.726,39.669 14.876,39.669 15.477 C 39.669 16.178,39.569 16.228,38.167 16.228 C 36.698 16.228,36.664 16.248,36.664 17.130 C 36.664 18.022,36.647 18.032,35.011 18.032 C 34.102 18.032,33.374 18.133,33.394 18.257 C 33.534 19.145,33.294 19.534,32.607 19.534 C 32.012 19.534,31.856 19.686,31.856 20.265 C 31.856 20.793,31.669 21.022,31.180 21.091 C 30.745 21.153,30.469 21.429,30.407 21.863 C 30.338 22.353,30.110 22.539,29.581 22.539 C 29.008 22.539,28.850 22.697,28.850 23.270 C 28.850 23.799,28.664 24.027,28.174 24.096 C 27.695 24.164,27.471 24.427,27.405 25.001 C 27.333 25.625,27.128 25.830,26.503 25.902 C 25.926 25.969,25.695 26.168,25.695 26.597 C 25.695 27.029,25.463 27.224,24.869 27.293 C 24.227 27.367,24.042 27.547,24.042 28.098 C 24.042 28.606,23.849 28.836,23.366 28.905 C 22.938 28.965,22.655 29.242,22.596 29.658 C 22.538 30.068,22.255 30.351,21.845 30.410 C 21.289 30.489,21.173 30.726,21.095 31.931 C 21.008 33.291,20.836 33.501,19.910 33.381 C 19.681 33.351,19.534 33.689,19.534 34.247 C 19.534 35.022,19.420 35.162,18.783 35.162 C 18.082 35.162,18.032 35.262,18.032 36.664 C 18.032 38.133,18.012 38.167,17.130 38.167 C 16.248 38.167,16.228 38.200,16.228 39.669 C 16.228 41.147,16.036 41.379,14.951 41.208 C 14.827 41.188,14.726 41.916,14.726 42.825 C 14.726 44.388,14.685 44.478,13.974 44.478 C 13.224 44.478,13.223 44.480,13.223 47.451 C 13.223 50.419,12.922 51.196,11.994 50.622 C 11.834 50.523,11.721 52.395,11.721 55.123 L 11.721 59.793 10.969 59.982 L 10.218 60.170 10.218 120.688 L 10.218 181.206 10.969 181.394 C 11.655 181.566,12.116 185.024,11.756 187.303 C 11.737 187.427,12.059 187.528,12.472 187.528 C 13.142 187.528,13.227 187.658,13.261 188.730 C 13.320 190.634,13.337 190.679,14.050 190.780 C 14.655 190.866,14.729 191.054,14.760 192.583 C 14.812 195.145,14.824 195.184,15.552 195.288 C 15.990 195.350,16.228 195.591,16.228 195.971 C 16.228 196.384,16.497 196.613,17.130 196.739 C 17.998 196.913,18.032 196.981,18.032 198.535 C 18.032 200.058,18.075 200.150,18.783 200.150 C 19.480 200.150,19.534 200.255,19.534 201.589 C 19.534 202.838,19.618 203.034,20.169 203.075 C 20.960 203.135,21.057 203.232,21.117 204.023 C 21.151 204.470,21.368 204.658,21.852 204.658 C 22.385 204.658,22.539 204.827,22.539 205.409 C 22.539 206.005,22.691 206.161,23.271 206.161 C 23.845 206.161,24.023 206.338,24.097 206.987 C 24.151 207.455,24.388 207.831,24.643 207.854 C 24.891 207.876,25.263 207.910,25.470 207.929 C 25.676 207.948,25.845 208.302,25.845 208.715 C 25.845 209.316,25.995 209.467,26.597 209.467 C 27.198 209.467,27.348 209.617,27.348 210.218 C 27.348 210.631,27.449 210.953,27.573 210.934 C 28.461 210.793,28.850 211.033,28.850 211.721 C 28.850 212.322,29.001 212.472,29.602 212.472 C 30.203 212.472,30.353 212.622,30.353 213.223 C 30.353 213.824,30.503 213.974,31.104 213.974 C 31.787 213.974,32.023 214.349,31.897 215.233 C 31.854 215.540,32.768 215.741,33.959 215.685 C 34.897 215.641,35.022 215.726,35.106 216.458 C 35.181 217.103,35.359 217.280,35.933 217.280 C 36.599 217.280,36.839 217.679,36.700 218.557 C 36.680 218.681,37.340 218.783,38.167 218.783 C 39.635 218.783,39.820 218.920,39.692 219.910 C 39.659 220.166,40.114 220.285,41.126 220.285 C 42.458 220.285,42.629 220.362,42.798 221.037 C 42.967 221.711,43.139 221.788,44.463 221.788 C 45.762 221.788,45.950 221.869,46.035 222.460 C 46.146 223.240,47.346 223.546,50.413 223.574 C 52.212 223.591,52.292 223.623,52.292 224.343 L 52.292 225.094 56.950 225.094 L 61.608 225.094 61.608 225.812 C 61.608 226.207,61.777 226.523,61.983 226.516 C 62.190 226.508,72.671 226.523,85.274 226.549 L 108.189 226.597 108.189 227.348 L 108.189 228.099 133.133 228.099 L 158.077 228.099 158.077 239.068 L 158.077 250.038 146.356 250.038 L 134.636 250.038 134.636 250.778 C 134.636 251.512,134.606 251.520,131.555 251.605 C 128.620 251.686,128.470 251.722,128.379 252.367 C 128.289 252.999,128.137 253.043,126.050 253.043 C 123.868 253.043,123.817 253.060,123.817 253.794 C 123.817 254.395,123.666 254.545,123.065 254.545 C 122.470 254.545,122.314 254.697,122.314 255.277 C 122.314 255.851,122.137 256.029,121.488 256.103 C 121.033 256.156,120.644 256.367,120.624 256.574 C 120.603 256.781,120.569 257.153,120.548 257.400 C 120.520 257.736,120.127 257.851,119.008 257.851 L 117.506 257.851 117.506 259.354 C 117.506 260.756,117.456 260.856,116.754 260.856 C 116.153 260.856,116.003 261.007,116.003 261.608 C 116.003 262.209,115.853 262.359,115.252 262.359 C 114.513 262.359,114.500 262.399,114.500 264.763 C 114.500 267.096,114.479 267.168,113.784 267.168 C 112.844 267.168,112.706 267.750,112.701 271.751 L 112.697 274.981 111.946 274.981 L 111.195 274.981 111.195 283.396 L 111.195 291.811 123.935 291.811 L 136.676 291.811 136.817 287.077 C 136.949 282.631,137.012 282.217,137.867 280.240 C 139.093 277.407,140.271 275.375,140.806 275.169 C 141.049 275.076,141.247 274.817,141.247 274.593 C 141.247 274.229,142.195 273.338,144.524 271.515 C 146.283 270.138,147.812 269.347,149.662 268.855 C 150.736 268.569,152.089 268.211,152.667 268.059 C 154.059 267.694,244.975 267.703,246.582 268.068 C 251.945 269.290,252.385 269.472,255.597 271.814 C 257.051 272.873,259.760 276.007,260.289 277.242 C 260.500 277.734,260.843 278.344,261.053 278.598 C 262.230 280.024,262.956 283.485,262.958 287.678 L 262.960 291.811 275.883 291.811 L 288.805 291.811 288.805 283.396 L 288.805 274.981 288.054 274.981 C 287.348 274.981,287.303 274.885,287.300 273.403 C 287.295 269.998,286.989 268.670,286.209 268.670 C 285.523 268.670,285.500 268.592,285.500 266.266 C 285.500 263.902,285.487 263.862,284.748 263.862 C 284.047 263.862,283.997 263.762,283.997 262.359 C 283.997 260.957,283.947 260.856,283.246 260.856 C 282.645 260.856,282.494 260.706,282.494 260.105 C 282.494 259.504,282.344 259.354,281.743 259.354 C 281.142 259.354,280.992 259.204,280.992 258.603 C 280.992 258.002,280.841 257.851,280.240 257.851 C 279.790 257.851,279.474 257.671,279.452 257.400 C 279.431 257.153,279.397 256.781,279.376 256.574 C 279.356 256.367,278.967 256.156,278.512 256.103 C 277.863 256.029,277.686 255.851,277.686 255.277 C 277.686 254.697,277.530 254.545,276.935 254.545 C 276.334 254.545,276.183 254.395,276.183 253.794 C 276.183 253.060,276.132 253.043,273.950 253.043 C 271.863 253.043,271.711 252.999,271.621 252.367 C 271.532 251.741,271.352 251.684,269.196 251.603 C 266.947 251.518,266.867 251.490,266.867 250.776 L 266.867 250.038 254.395 250.038 L 241.923 250.038 241.923 249.117 C 241.923 248.335,241.822 248.211,241.247 248.291 L 240.571 248.385 240.492 238.993 L 240.412 229.602 241.168 229.602 C 241.773 229.602,241.923 229.453,241.923 228.850 L 241.923 228.099 274.681 228.099 L 307.438 228.099 307.438 227.348 L 307.438 226.597 321.412 226.597 L 335.387 226.597 335.387 225.852 L 335.387 225.108 340.721 225.026 C 345.996 224.945,346.057 224.936,346.152 224.267 C 346.242 223.630,346.387 223.591,348.706 223.587 C 351.910 223.582,352.517 223.409,352.517 222.504 C 352.517 221.845,352.637 221.788,354.020 221.788 C 355.422 221.788,355.522 221.738,355.522 221.037 C 355.522 220.326,355.612 220.285,357.175 220.285 C 358.738 220.285,358.828 220.245,358.828 219.534 C 358.828 218.833,358.928 218.783,360.331 218.783 C 361.724 218.783,361.833 218.729,361.833 218.048 C 361.833 217.385,361.972 217.304,363.261 217.222 C 364.479 217.143,364.702 217.031,364.784 216.454 C 364.868 215.862,365.333 215.615,366.123 215.744 C 366.251 215.765,366.437 215.376,366.536 214.878 C 366.676 214.178,366.877 213.974,367.431 213.974 C 367.991 213.974,368.144 213.814,368.144 213.223 C 368.144 212.622,368.295 212.472,368.896 212.472 C 369.497 212.472,369.647 212.322,369.647 211.721 C 369.647 211.119,369.797 210.969,370.398 210.969 C 370.999 210.969,371.150 210.819,371.150 210.218 C 371.150 209.617,371.300 209.467,371.901 209.467 C 372.502 209.467,372.652 209.316,372.652 208.715 C 372.652 208.116,372.803 207.964,373.398 207.964 C 373.943 207.964,374.194 207.761,374.333 207.210 C 374.447 206.753,374.805 206.385,375.240 206.276 C 375.747 206.149,375.958 205.884,375.958 205.377 C 375.958 204.811,376.117 204.658,376.709 204.658 C 377.310 204.658,377.461 204.508,377.461 203.907 C 377.461 203.306,377.611 203.156,378.212 203.156 C 378.913 203.156,378.963 203.055,378.963 201.653 C 378.963 200.250,379.013 200.150,379.715 200.150 C 380.316 200.150,380.466 200.000,380.466 199.399 C 380.466 198.798,380.616 198.648,381.217 198.648 C 381.927 198.648,381.968 198.557,381.968 196.995 C 381.968 195.359,381.978 195.342,382.870 195.342 C 383.752 195.342,383.772 195.308,383.772 193.839 C 383.772 192.437,383.822 192.337,384.523 192.337 C 385.262 192.337,385.274 192.297,385.274 189.932 C 385.274 187.568,385.287 187.528,386.026 187.528 C 386.760 187.528,386.777 187.478,386.777 185.274 C 386.777 183.070,386.794 183.020,387.528 183.020 L 388.279 183.020 388.279 117.656 L 388.279 52.292 387.539 52.292 C 386.805 52.292,386.797 52.262,386.712 49.211 C 386.631 46.275,386.595 46.126,385.950 46.035 C 385.316 45.945,385.274 45.796,385.274 43.619 C 385.274 41.474,385.227 41.296,384.639 41.252 C 383.801 41.189,383.819 41.220,383.713 39.586 C 383.627 38.261,383.567 38.167,382.795 38.167 C 382.114 38.167,381.968 38.035,381.968 37.415 C 381.968 36.814,381.818 36.664,381.217 36.664 C 380.506 36.664,380.466 36.575,380.466 34.998 C 380.466 33.840,380.351 33.347,380.090 33.381 C 379.164 33.501,378.992 33.291,378.905 31.931 C 378.827 30.726,378.711 30.489,378.155 30.410 C 377.745 30.351,377.462 30.068,377.404 29.658 C 377.345 29.242,377.062 28.965,376.634 28.905 C 376.151 28.836,375.958 28.606,375.958 28.098 C 375.958 27.547,375.773 27.367,375.131 27.293 C 374.537 27.224,374.305 27.029,374.305 26.597 C 374.305 26.168,374.074 25.969,373.497 25.902 C 372.872 25.830,372.667 25.625,372.595 25.001 C 372.529 24.427,372.305 24.164,371.826 24.096 C 371.336 24.027,371.150 23.799,371.150 23.270 C 371.150 22.697,370.992 22.539,370.419 22.539 C 369.890 22.539,369.662 22.353,369.593 21.863 C 369.531 21.429,369.255 21.153,368.820 21.091 C 368.331 21.022,368.144 20.793,368.144 20.265 C 368.144 19.580,368.041 19.534,366.491 19.534 C 364.929 19.534,364.838 19.493,364.838 18.783 C 364.838 18.182,364.688 18.032,364.087 18.032 C 363.450 18.032,363.336 17.892,363.336 17.117 C 363.336 16.559,363.189 16.221,362.960 16.251 C 361.247 16.473,360.331 16.209,360.331 15.493 C 360.331 14.817,360.202 14.750,358.753 14.666 C 357.406 14.589,357.175 14.488,357.175 13.974 C 357.175 13.461,356.944 13.360,355.597 13.283 C 354.148 13.199,354.020 13.132,354.020 12.456 C 354.020 11.741,353.957 11.721,351.766 11.721 C 349.562 11.721,349.512 11.704,349.512 10.969 C 349.512 10.230,349.472 10.218,347.107 10.218 C 344.743 10.218,344.703 10.205,344.703 9.467 L 344.703 8.715 200.000 8.715 L 55.297 8.715 55.297 9.456 M339.294 36.639 C 343.489 37.787,347.378 39.650,349.812 41.679 C 354.637 45.699,358.759 51.302,359.699 55.117 C 359.898 55.927,360.246 56.947,360.472 57.384 C 361.500 59.371,361.564 63.330,361.469 119.008 C 361.383 168.965,361.331 173.988,360.880 175.357 C 360.608 176.183,360.158 177.671,359.879 178.663 C 359.601 179.654,359.237 180.631,359.071 180.833 C 358.904 181.035,358.234 182.245,357.581 183.521 C 355.157 188.262,350.347 192.808,344.981 195.431 C 343.729 196.043,342.563 196.544,342.390 196.544 C 342.217 196.544,341.483 196.803,340.759 197.119 C 337.849 198.392,339.078 198.382,210.669 198.233 C 74.242 198.075,63.866 197.974,59.654 196.766 C 48.412 193.541,39.797 183.802,38.406 172.745 C 37.879 168.550,38.174 61.099,38.720 58.753 C 39.296 56.277,41.969 50.080,42.673 49.587 C 42.791 49.504,43.077 49.074,43.307 48.631 C 45.839 43.768,53.390 38.465,60.406 36.625 L 63.561 35.798 199.850 35.787 L 336.138 35.776 339.294 36.639 M112.547 94.854 C 110.729 95.081,108.633 95.474,107.889 95.729 C 107.145 95.983,105.928 96.387,105.184 96.627 C 104.440 96.866,102.953 97.538,101.878 98.118 C 100.804 98.699,99.499 99.373,98.979 99.616 C 97.157 100.467,92.261 104.697,89.867 107.489 C 89.505 107.912,86.979 111.564,86.187 112.811 C 85.826 113.381,84.147 117.438,84.147 117.743 C 84.147 117.901,83.889 118.622,83.574 119.346 C 83.036 120.579,82.321 124.764,81.886 129.226 C 81.406 134.149,84.501 146.333,86.695 148.153 C 86.930 148.348,87.274 148.970,87.461 149.536 C 87.648 150.101,87.921 150.563,88.068 150.563 C 88.215 150.563,88.509 150.889,88.721 151.286 C 89.324 152.417,93.567 156.927,94.969 157.926 C 95.664 158.422,96.457 159.031,96.732 159.279 C 97.786 160.232,103.064 163.186,103.714 163.186 C 103.852 163.186,104.678 163.508,105.551 163.903 C 108.741 165.345,117.834 166.518,120.811 165.871 C 121.555 165.710,123.178 165.437,124.418 165.266 C 132.157 164.199,141.476 158.384,146.351 151.581 C 148.408 148.711,150.848 144.288,150.859 143.410 C 150.862 143.194,151.151 142.388,151.501 141.619 C 153.045 138.229,153.963 129.437,153.155 125.770 C 152.900 124.613,152.497 122.720,152.260 121.563 C 151.787 119.258,150.443 115.513,149.833 114.801 C 149.620 114.553,149.311 113.944,149.145 113.448 C 148.863 112.603,148.224 111.527,146.590 109.145 C 145.424 107.446,141.608 103.500,139.807 102.131 C 138.864 101.414,138.024 100.745,137.941 100.644 C 137.859 100.542,137.318 100.221,136.739 99.931 C 136.161 99.640,135.485 99.237,135.237 99.037 C 134.989 98.836,134.313 98.492,133.734 98.272 C 133.156 98.052,132.479 97.708,132.231 97.507 C 131.983 97.306,131.104 96.933,130.278 96.678 C 129.452 96.423,128.233 96.013,127.570 95.767 C 124.543 94.642,117.621 94.222,112.547 94.854 M245.980 94.541 C 241.759 95.116,240.217 95.433,237.866 96.205 C 234.913 97.176,229.761 99.620,228.938 100.441 C 228.653 100.724,227.841 101.321,227.133 101.768 C 225.674 102.687,221.791 106.564,220.436 108.454 C 219.940 109.146,219.252 110.079,218.908 110.528 C 218.290 111.333,217.341 113.058,216.066 115.696 C 214.982 117.938,213.704 122.872,213.341 126.217 C 212.555 133.462,213.796 140.351,216.998 146.517 C 217.853 148.164,218.652 149.579,218.773 149.662 C 218.894 149.745,219.335 150.357,219.752 151.024 C 220.705 152.546,224.306 156.470,225.881 157.702 C 226.357 158.075,227.154 158.702,227.651 159.095 C 228.795 160.001,230.106 160.772,232.757 162.097 C 237.119 164.276,238.381 164.671,244.929 165.901 C 249.971 166.848,258.330 165.291,264.613 162.234 C 266.807 161.166,267.868 160.540,270.361 158.840 C 271.202 158.267,274.109 155.627,274.791 154.818 C 274.978 154.595,275.407 154.122,275.743 153.766 C 277.404 152.007,278.537 150.375,280.075 147.526 C 284.089 140.088,285.976 127.804,283.868 122.828 C 283.643 122.297,283.293 121.119,283.089 120.210 C 282.886 119.301,282.482 118.017,282.192 117.355 C 281.902 116.694,281.567 115.835,281.448 115.446 C 281.329 115.057,280.904 114.256,280.503 113.665 C 280.102 113.074,279.696 112.277,279.599 111.893 C 279.503 111.509,279.333 111.195,279.221 111.195 C 279.109 111.195,278.764 110.765,278.454 110.240 C 277.777 109.094,277.520 108.769,274.890 105.738 C 273.765 104.442,272.749 103.381,272.633 103.381 C 272.516 103.381,272.084 103.077,271.672 102.705 C 269.815 101.027,265.642 98.273,264.952 98.271 C 264.766 98.270,264.207 98.025,263.711 97.727 C 260.322 95.686,250.513 93.924,245.980 94.541 " stroke="none" fill="#f79a1f" fill-rule="evenodd"></path><path id="path1" d="M68.670 36.977 C 63.114 37.214,58.537 37.889,57.853 38.573 C 57.593 38.832,56.878 39.134,56.264 39.244 C 55.649 39.354,54.875 39.690,54.543 39.991 C 54.212 40.292,53.533 40.715,53.035 40.930 C 51.575 41.563,50.581 42.364,47.698 45.229 C 44.217 48.688,43.877 49.074,43.877 49.554 C 43.877 49.772,43.539 50.353,43.125 50.844 C 42.712 51.335,42.374 51.978,42.374 52.274 C 42.374 52.570,42.112 53.145,41.792 53.552 C 41.471 53.960,40.994 55.219,40.731 56.352 C 40.469 57.484,40.089 58.610,39.887 58.853 C 39.407 59.431,39.184 168.633,39.656 171.450 C 40.263 175.070,40.884 177.362,41.769 179.256 C 42.267 180.321,42.675 181.333,42.675 181.505 C 42.675 181.677,42.789 181.818,42.930 181.818 C 43.070 181.818,43.441 182.387,43.755 183.082 C 44.405 184.525,44.662 184.840,47.872 188.137 C 51.041 191.391,53.711 193.050,58.585 194.793 C 62.012 196.018,64.630 196.226,76.793 196.235 C 86.040 196.243,87.090 196.294,87.762 196.769 C 88.888 197.566,336.201 197.590,337.654 196.794 C 338.157 196.518,339.441 196.139,340.509 195.952 C 341.576 195.764,342.800 195.359,343.228 195.052 C 343.656 194.745,344.569 194.325,345.256 194.119 C 345.944 193.913,346.506 193.634,346.506 193.499 C 346.506 193.364,346.894 193.053,347.368 192.808 C 347.842 192.563,348.551 192.094,348.946 191.765 C 349.340 191.437,350.153 190.755,350.753 190.250 C 351.354 189.745,351.996 189.331,352.181 189.331 C 352.366 189.331,352.517 189.209,352.517 189.059 C 352.517 188.813,353.235 187.867,355.382 185.285 C 355.790 184.795,356.123 184.238,356.123 184.048 C 356.123 183.858,356.372 183.380,356.676 182.986 C 356.980 182.591,357.388 181.804,357.582 181.237 C 357.775 180.669,358.140 179.977,358.391 179.699 C 358.643 179.421,358.981 178.330,359.143 177.275 C 359.305 176.220,359.672 174.748,359.959 174.005 C 360.640 172.240,360.782 61.684,360.105 60.501 C 359.899 60.140,359.533 58.923,359.292 57.796 C 359.052 56.669,358.579 55.212,358.240 54.557 C 357.902 53.902,357.626 53.135,357.626 52.852 C 357.626 52.569,357.306 51.955,356.916 51.488 C 356.525 51.021,356.108 50.328,355.989 49.949 C 355.737 49.143,355.482 48.842,351.921 45.154 C 350.445 43.625,349.104 42.374,348.941 42.374 C 348.778 42.374,348.467 42.127,348.251 41.825 C 348.035 41.522,347.391 41.114,346.820 40.917 C 346.248 40.720,345.505 40.309,345.167 40.004 C 344.829 39.699,344.089 39.362,343.521 39.255 C 342.953 39.149,342.268 38.862,341.999 38.618 C 341.730 38.374,339.963 37.873,338.072 37.504 L 334.636 36.833 204.057 36.803 C 132.239 36.786,71.315 36.864,68.670 36.977 M125.299 94.045 C 126.527 94.386,127.828 94.666,128.189 94.666 C 128.549 94.666,129.174 94.925,129.577 95.242 C 129.980 95.559,130.814 95.913,131.431 96.029 C 132.048 96.144,133.027 96.561,133.607 96.955 C 134.188 97.349,134.775 97.671,134.913 97.671 C 135.370 97.671,138.670 99.777,138.924 100.231 C 139.061 100.476,139.380 100.676,139.632 100.676 C 140.194 100.676,146.957 107.386,146.957 107.944 C 146.957 108.165,147.228 108.514,147.558 108.721 C 147.889 108.927,148.159 109.278,148.159 109.500 C 148.159 109.723,148.496 110.268,148.908 110.713 C 149.320 111.157,149.743 111.887,149.849 112.334 C 149.955 112.782,150.284 113.418,150.581 113.749 C 150.877 114.080,151.220 114.756,151.343 115.252 C 151.465 115.748,151.881 116.748,152.266 117.475 C 152.652 118.202,152.968 119.047,152.968 119.352 C 152.968 119.658,153.272 120.753,153.644 121.787 C 154.557 124.326,154.665 136.450,153.790 138.242 C 153.508 138.820,153.143 140.005,152.979 140.875 C 152.815 141.744,152.421 142.961,152.102 143.579 C 151.784 144.197,151.308 145.177,151.045 145.755 C 150.782 146.334,150.446 147.010,150.297 147.258 C 150.148 147.506,149.875 148.047,149.689 148.460 C 149.503 148.873,148.943 149.752,148.444 150.413 C 147.946 151.074,147.220 152.095,146.831 152.682 C 145.304 154.987,139.040 160.781,138.075 160.781 C 137.848 160.781,137.520 161.047,137.346 161.372 C 137.172 161.697,136.477 162.128,135.802 162.330 C 135.126 162.533,134.506 162.874,134.423 163.089 C 134.341 163.304,133.712 163.629,133.027 163.811 C 132.341 163.994,131.544 164.355,131.254 164.613 C 130.964 164.872,129.882 165.255,128.850 165.465 C 127.817 165.675,126.364 166.084,125.620 166.374 C 123.459 167.216,111.655 167.153,109.542 166.287 C 108.715 165.949,107.498 165.580,106.837 165.468 C 105.350 165.217,103.982 164.694,103.982 164.378 C 103.982 164.247,103.427 164.046,102.748 163.932 C 102.069 163.817,101.274 163.483,100.980 163.189 C 100.686 162.895,99.973 162.498,99.395 162.307 C 98.817 162.117,98.104 161.695,97.811 161.371 C 97.517 161.047,97.103 160.781,96.890 160.781 C 96.677 160.781,96.326 160.544,96.110 160.254 C 95.894 159.964,95.172 159.373,94.505 158.940 C 93.218 158.105,88.054 152.661,88.054 152.139 C 88.054 151.969,87.856 151.754,87.613 151.661 C 87.370 151.567,86.957 151.046,86.695 150.501 C 86.433 149.957,85.821 148.835,85.336 148.009 C 84.234 146.135,83.546 144.679,83.546 144.222 C 83.546 144.030,83.290 143.451,82.977 142.936 C 82.664 142.420,82.312 141.415,82.196 140.701 C 82.079 139.988,81.704 138.635,81.363 137.696 C 80.421 135.108,80.412 126.396,81.348 123.366 C 81.706 122.209,82.080 120.652,82.179 119.905 C 82.278 119.159,82.626 118.145,82.951 117.651 C 83.276 117.158,83.543 116.549,83.544 116.299 C 83.549 115.240,87.155 108.790,87.743 108.790 C 87.892 108.790,88.109 108.486,88.225 108.114 C 88.597 106.925,93.491 102.055,96.238 100.142 C 98.393 98.640,99.662 97.875,100.450 97.600 C 100.905 97.441,101.277 97.206,101.277 97.077 C 101.277 96.798,102.551 96.280,103.886 96.018 C 104.412 95.914,104.994 95.646,105.180 95.422 C 105.366 95.198,106.491 94.847,107.680 94.643 C 108.869 94.438,110.113 94.128,110.443 93.954 C 112.280 92.985,121.691 93.043,125.299 94.045 M253.979 93.462 C 254.869 93.627,255.868 93.888,256.198 94.043 C 256.529 94.198,257.664 94.465,258.721 94.638 C 259.778 94.810,260.860 95.147,261.125 95.386 C 261.391 95.625,262.014 95.910,262.509 96.019 C 263.833 96.310,265.064 96.811,265.064 97.059 C 265.064 97.178,265.583 97.431,266.217 97.621 C 266.851 97.811,267.616 98.238,267.917 98.570 C 268.217 98.902,268.628 99.174,268.830 99.174 C 269.032 99.174,269.381 99.395,269.606 99.665 C 269.830 99.936,270.503 100.466,271.101 100.843 C 273.360 102.269,279.189 108.563,279.189 109.577 C 279.189 109.770,279.382 110.002,279.617 110.093 C 279.853 110.183,280.323 110.840,280.662 111.552 C 281.000 112.265,281.407 113.050,281.565 113.298 C 282.314 114.473,283.696 117.778,283.696 118.395 C 283.696 118.776,283.972 119.533,284.309 120.078 C 285.791 122.477,285.830 137.319,284.361 140.195 C 284.024 140.856,283.658 141.964,283.548 142.657 C 283.439 143.350,283.158 144.076,282.924 144.270 C 282.690 144.464,282.350 145.182,282.169 145.865 C 281.988 146.548,281.597 147.378,281.300 147.708 C 281.003 148.039,280.659 148.648,280.534 149.061 C 280.223 150.097,278.435 152.407,275.371 155.731 C 275.173 155.947,274.834 156.286,274.620 156.484 C 274.405 156.683,274.062 157.021,273.856 157.236 C 273.651 157.450,273.110 157.932,272.654 158.305 C 272.199 158.679,271.355 159.390,270.780 159.885 C 270.205 160.380,269.462 160.871,269.127 160.976 C 268.793 161.082,268.351 161.408,268.144 161.702 C 267.937 161.996,267.372 162.323,266.887 162.430 C 266.403 162.536,265.847 162.816,265.651 163.052 C 265.455 163.289,264.749 163.629,264.083 163.808 C 263.418 163.987,262.520 164.380,262.090 164.682 C 261.659 164.983,260.715 165.315,259.992 165.419 C 259.268 165.524,257.849 165.904,256.836 166.265 C 254.047 167.260,243.244 167.271,240.625 166.281 C 239.662 165.918,238.275 165.530,237.541 165.420 C 236.807 165.310,235.899 164.978,235.523 164.683 C 235.147 164.387,234.276 163.993,233.586 163.807 C 232.896 163.622,232.244 163.327,232.136 163.153 C 232.028 162.978,231.380 162.572,230.696 162.251 C 228.782 161.351,227.129 160.284,226.834 159.756 C 226.687 159.493,226.395 159.279,226.185 159.279 C 225.975 159.279,225.509 158.974,225.149 158.603 C 224.789 158.231,224.282 157.724,224.022 157.476 C 222.130 155.669,219.083 152.230,219.083 151.901 C 219.083 151.680,218.816 151.312,218.488 151.082 C 218.161 150.853,217.686 150.169,217.432 149.563 C 217.179 148.956,216.849 148.460,216.698 148.460 C 216.548 148.460,216.260 147.953,216.058 147.333 C 215.856 146.713,215.443 145.888,215.141 145.499 C 214.839 145.111,214.502 144.299,214.393 143.696 C 214.283 143.093,213.952 142.119,213.658 141.532 C 213.363 140.945,212.979 139.443,212.806 138.195 C 212.632 136.946,212.342 135.535,212.161 135.059 C 211.477 133.261,211.456 129.518,212.111 126.359 C 212.452 124.713,212.812 122.564,212.911 121.584 C 213.010 120.603,213.341 119.386,213.646 118.879 C 213.952 118.372,214.289 117.463,214.397 116.860 C 214.504 116.257,214.841 115.445,215.145 115.057 C 215.450 114.668,215.793 113.920,215.908 113.394 C 216.023 112.868,216.321 112.269,216.570 112.062 C 216.820 111.855,217.290 111.203,217.615 110.614 C 218.457 109.087,219.652 107.480,220.156 107.198 C 220.392 107.066,220.586 106.809,220.586 106.628 C 220.586 106.055,225.314 101.662,227.640 100.075 C 228.246 99.662,229.104 99.039,229.547 98.691 C 229.991 98.343,230.849 97.897,231.456 97.699 C 232.063 97.501,232.708 97.161,232.889 96.942 C 233.071 96.723,233.859 96.371,234.641 96.160 C 235.423 95.949,236.280 95.591,236.546 95.364 C 236.811 95.137,237.893 94.810,238.950 94.638 C 240.007 94.465,241.172 94.178,241.538 93.998 C 243.186 93.193,250.758 92.867,253.979 93.462 M195.793 269.267 L 150.413 269.421 148.112 270.520 C 145.595 271.722,145.322 271.922,142.758 274.446 C 139.326 277.825,137.908 281.672,137.716 288.129 C 137.613 291.593,137.640 291.811,138.182 291.811 C 138.721 291.811,138.766 291.477,138.910 286.474 C 139.057 281.326,139.091 281.096,139.854 279.971 C 140.290 279.329,140.646 278.689,140.646 278.549 C 140.646 277.612,145.126 272.878,146.013 272.878 C 146.190 272.878,146.480 272.607,146.657 272.276 C 146.834 271.946,147.153 271.675,147.368 271.675 C 147.582 271.675,148.422 271.304,149.235 270.849 L 150.714 270.023 198.773 269.943 C 227.305 269.896,247.392 269.976,248.209 270.141 C 249.959 270.493,252.805 271.695,253.474 272.364 C 253.756 272.646,254.110 272.878,254.259 272.878 C 254.509 272.878,255.040 273.421,257.316 276.007 C 257.765 276.517,258.408 277.219,258.743 277.567 C 259.079 277.915,259.354 278.467,259.354 278.794 C 259.354 279.120,259.702 280.053,260.127 280.866 C 260.833 282.215,260.916 282.758,261.071 287.077 C 261.274 292.682,261.758 293.410,261.758 288.109 C 261.758 283.957,261.367 281.278,260.564 279.940 C 260.267 279.444,259.925 278.716,259.806 278.321 C 258.221 273.102,249.397 268.479,242.097 269.042 C 241.588 269.081,220.751 269.183,195.793 269.267 " stroke="none" fill="#4c0404" fill-rule="evenodd"></path><path id="path2" d="M152.066 274.376 C 145.851 276.421,142.750 281.243,142.750 288.861 L 142.750 291.811 152.817 291.811 C 162.783 291.811,162.885 291.804,162.885 291.191 C 162.885 289.880,165.386 285.449,166.400 284.963 C 168.657 283.881,170.803 286.185,171.210 290.124 L 171.384 291.811 190.425 291.811 L 209.467 291.811 209.467 291.097 C 209.467 290.243,210.433 288.115,212.487 284.448 C 213.320 282.960,214.264 281.185,214.586 280.503 C 217.031 275.325,220.230 277.247,221.026 284.373 C 221.252 286.398,221.584 288.435,221.763 288.900 C 221.942 289.365,222.089 290.211,222.089 290.778 L 222.089 291.811 239.563 291.811 L 257.037 291.811 256.826 287.678 C 256.477 280.819,254.429 277.492,248.986 274.936 L 247.483 274.230 200.150 274.179 C 174.117 274.151,152.479 274.240,152.066 274.376 " stroke="none" fill="#38d1f5" fill-rule="evenodd"></path><path id="path3" d="M60.406 36.625 C 56.068 37.763,51.720 39.968,48.705 42.559 C 46.810 44.186,43.940 47.415,43.307 48.631 C 43.077 49.074,42.791 49.504,42.673 49.587 C 41.969 50.080,39.296 56.277,38.720 58.753 C 38.174 61.099,37.879 168.550,38.406 172.745 C 39.797 183.802,48.412 193.541,59.654 196.766 C 63.866 197.974,74.242 198.075,210.669 198.233 C 339.078 198.382,337.849 198.392,340.759 197.119 C 341.483 196.803,342.217 196.544,342.390 196.544 C 342.563 196.544,343.729 196.043,344.981 195.431 C 350.347 192.808,355.157 188.262,357.581 183.521 C 358.234 182.245,358.904 181.035,359.071 180.833 C 359.237 180.631,359.601 179.654,359.879 178.663 C 360.158 177.671,360.608 176.183,360.880 175.357 C 361.331 173.988,361.383 168.965,361.469 119.008 C 361.564 63.330,361.500 59.371,360.472 57.384 C 360.246 56.947,359.898 55.927,359.699 55.117 C 358.759 51.302,354.637 45.699,349.812 41.679 C 347.378 39.650,343.489 37.787,339.294 36.639 L 336.138 35.776 199.850 35.787 L 63.561 35.798 60.406 36.625 M338.072 37.504 C 339.963 37.873,341.730 38.374,341.999 38.618 C 342.268 38.862,342.953 39.149,343.521 39.255 C 344.089 39.362,344.829 39.699,345.167 40.004 C 345.505 40.309,346.248 40.720,346.820 40.917 C 347.391 41.114,348.035 41.522,348.251 41.825 C 348.467 42.127,348.778 42.374,348.941 42.374 C 349.104 42.374,350.445 43.625,351.921 45.154 C 355.482 48.842,355.737 49.143,355.989 49.949 C 356.108 50.328,356.525 51.021,356.916 51.488 C 357.306 51.955,357.626 52.569,357.626 52.852 C 357.626 53.135,357.902 53.902,358.240 54.557 C 358.579 55.212,359.052 56.669,359.292 57.796 C 359.533 58.923,359.899 60.140,360.105 60.501 C 360.782 61.684,360.640 172.240,359.959 174.005 C 359.672 174.748,359.305 176.220,359.143 177.275 C 358.981 178.330,358.643 179.421,358.391 179.699 C 358.140 179.977,357.775 180.669,357.582 181.237 C 357.388 181.804,356.980 182.591,356.676 182.986 C 356.372 183.380,356.123 183.858,356.123 184.048 C 356.123 184.238,355.790 184.795,355.382 185.285 C 353.235 187.867,352.517 188.813,352.517 189.059 C 352.517 189.209,352.366 189.331,352.181 189.331 C 351.996 189.331,351.354 189.745,350.753 190.250 C 350.153 190.755,349.340 191.437,348.946 191.765 C 348.551 192.094,347.842 192.563,347.368 192.808 C 346.894 193.053,346.506 193.364,346.506 193.499 C 346.506 193.634,345.944 193.913,345.256 194.119 C 344.569 194.325,343.656 194.745,343.228 195.052 C 342.800 195.359,341.576 195.764,340.509 195.952 C 339.441 196.139,338.157 196.518,337.654 196.794 C 336.201 197.590,88.888 197.566,87.762 196.769 C 87.090 196.294,86.040 196.243,76.793 196.235 C 64.630 196.226,62.012 196.018,58.585 194.793 C 53.711 193.050,51.041 191.391,47.872 188.137 C 44.662 184.840,44.405 184.525,43.755 183.082 C 43.441 182.387,43.070 181.818,42.930 181.818 C 42.789 181.818,42.675 181.677,42.675 181.505 C 42.675 181.333,42.267 180.321,41.769 179.256 C 40.884 177.362,40.263 175.070,39.656 171.450 C 39.184 168.633,39.407 59.431,39.887 58.853 C 40.089 58.610,40.469 57.484,40.731 56.352 C 40.994 55.219,41.471 53.960,41.792 53.552 C 42.112 53.145,42.374 52.570,42.374 52.274 C 42.374 51.978,42.712 51.335,43.125 50.844 C 43.539 50.353,43.877 49.772,43.877 49.554 C 43.877 49.074,44.217 48.688,47.698 45.229 C 50.581 42.364,51.575 41.563,53.035 40.930 C 53.533 40.715,54.212 40.292,54.543 39.991 C 54.875 39.690,55.649 39.354,56.264 39.244 C 56.878 39.134,57.593 38.832,57.853 38.573 C 59.674 36.752,58.305 36.769,204.057 36.803 L 334.636 36.833 338.072 37.504 M112.547 93.423 C 111.721 93.541,110.774 93.779,110.443 93.954 C 110.113 94.128,108.869 94.438,107.680 94.643 C 106.491 94.847,105.366 95.198,105.180 95.422 C 104.994 95.646,104.412 95.914,103.886 96.018 C 102.551 96.280,101.277 96.798,101.277 97.077 C 101.277 97.206,100.905 97.441,100.450 97.600 C 99.662 97.875,98.393 98.640,96.238 100.142 C 93.491 102.055,88.597 106.925,88.225 108.114 C 88.109 108.486,87.892 108.790,87.743 108.790 C 87.155 108.790,83.549 115.240,83.544 116.299 C 83.543 116.549,83.276 117.158,82.951 117.651 C 82.626 118.145,82.278 119.159,82.179 119.905 C 82.080 120.652,81.706 122.209,81.348 123.366 C 80.412 126.396,80.421 135.108,81.363 137.696 C 81.704 138.635,82.079 139.988,82.196 140.701 C 82.312 141.415,82.664 142.420,82.977 142.936 C 83.290 143.451,83.546 144.030,83.546 144.222 C 83.546 144.679,84.234 146.135,85.336 148.009 C 85.821 148.835,86.433 149.957,86.695 150.501 C 86.957 151.046,87.370 151.567,87.613 151.661 C 87.856 151.754,88.054 151.969,88.054 152.139 C 88.054 152.661,93.218 158.105,94.505 158.940 C 95.172 159.373,95.894 159.964,96.110 160.254 C 96.326 160.544,96.677 160.781,96.890 160.781 C 97.103 160.781,97.517 161.047,97.811 161.371 C 98.104 161.695,98.817 162.117,99.395 162.307 C 99.973 162.498,100.686 162.895,100.980 163.189 C 101.274 163.483,102.069 163.817,102.748 163.932 C 103.427 164.046,103.982 164.247,103.982 164.378 C 103.982 164.694,105.350 165.217,106.837 165.468 C 107.498 165.580,108.715 165.949,109.542 166.287 C 111.655 167.153,123.459 167.216,125.620 166.374 C 126.364 166.084,127.817 165.675,128.850 165.465 C 129.882 165.255,130.964 164.872,131.254 164.613 C 131.544 164.355,132.341 163.994,133.027 163.811 C 133.712 163.629,134.341 163.304,134.423 163.089 C 134.506 162.874,135.126 162.533,135.802 162.330 C 136.477 162.128,137.172 161.697,137.346 161.372 C 137.520 161.047,137.848 160.781,138.075 160.781 C 139.040 160.781,145.304 154.987,146.831 152.682 C 147.220 152.095,147.946 151.074,148.444 150.413 C 148.943 149.752,149.503 148.873,149.689 148.460 C 149.875 148.047,150.148 147.506,150.297 147.258 C 150.446 147.010,150.782 146.334,151.045 145.755 C 151.308 145.177,151.784 144.197,152.102 143.579 C 152.421 142.961,152.815 141.744,152.979 140.875 C 153.143 140.005,153.508 138.820,153.790 138.242 C 154.665 136.450,154.557 124.326,153.644 121.787 C 153.272 120.753,152.968 119.658,152.968 119.352 C 152.968 119.047,152.652 118.202,152.266 117.475 C 151.881 116.748,151.465 115.748,151.343 115.252 C 151.220 114.756,150.877 114.080,150.581 113.749 C 150.284 113.418,149.955 112.782,149.849 112.334 C 149.743 111.887,149.320 111.157,148.908 110.713 C 148.496 110.268,148.159 109.723,148.159 109.500 C 148.159 109.278,147.889 108.927,147.558 108.721 C 147.228 108.514,146.957 108.165,146.957 107.944 C 146.957 107.386,140.194 100.676,139.632 100.676 C 139.380 100.676,139.061 100.476,138.924 100.231 C 138.670 99.777,135.370 97.671,134.913 97.671 C 134.775 97.671,134.188 97.349,133.607 96.955 C 133.027 96.561,132.048 96.144,131.431 96.029 C 130.814 95.913,129.980 95.559,129.577 95.242 C 129.174 94.925,128.549 94.666,128.189 94.666 C 127.828 94.666,126.527 94.386,125.299 94.045 C 122.879 93.373,115.450 93.011,112.547 93.423 M243.342 93.452 C 242.717 93.573,241.905 93.819,241.538 93.998 C 241.172 94.178,240.007 94.465,238.950 94.638 C 237.893 94.810,236.811 95.137,236.546 95.364 C 236.280 95.591,235.423 95.949,234.641 96.160 C 233.859 96.371,233.071 96.723,232.889 96.942 C 232.708 97.161,232.063 97.501,231.456 97.699 C 230.849 97.897,229.991 98.343,229.547 98.691 C 229.104 99.039,228.246 99.662,227.640 100.075 C 225.314 101.662,220.586 106.055,220.586 106.628 C 220.586 106.809,220.392 107.066,220.156 107.198 C 219.652 107.480,218.457 109.087,217.615 110.614 C 217.290 111.203,216.820 111.855,216.570 112.062 C 216.321 112.269,216.023 112.868,215.908 113.394 C 215.793 113.920,215.450 114.668,215.145 115.057 C 214.841 115.445,214.504 116.257,214.397 116.860 C 214.289 117.463,213.952 118.372,213.646 118.879 C 213.341 119.386,213.010 120.603,212.911 121.584 C 212.812 122.564,212.452 124.713,212.111 126.359 C 211.456 129.518,211.477 133.261,212.161 135.059 C 212.342 135.535,212.632 136.946,212.806 138.195 C 212.979 139.443,213.363 140.945,213.658 141.532 C 213.952 142.119,214.283 143.093,214.393 143.696 C 214.502 144.299,214.839 145.111,215.141 145.499 C 215.443 145.888,215.856 146.713,216.058 147.333 C 216.260 147.953,216.548 148.460,216.698 148.460 C 216.849 148.460,217.179 148.956,217.432 149.563 C 217.686 150.169,218.161 150.853,218.488 151.082 C 218.816 151.312,219.083 151.680,219.083 151.901 C 219.083 152.230,222.130 155.669,224.022 157.476 C 224.282 157.724,224.789 158.231,225.149 158.603 C 225.509 158.974,225.975 159.279,226.185 159.279 C 226.395 159.279,226.687 159.493,226.834 159.756 C 227.129 160.284,228.782 161.351,230.696 162.251 C 231.380 162.572,232.028 162.978,232.136 163.153 C 232.244 163.327,232.896 163.622,233.586 163.807 C 234.276 163.993,235.147 164.387,235.523 164.683 C 235.899 164.978,236.807 165.310,237.541 165.420 C 238.275 165.530,239.662 165.918,240.625 166.281 C 243.244 167.271,254.047 167.260,256.836 166.265 C 257.849 165.904,259.268 165.524,259.992 165.419 C 260.715 165.315,261.659 164.983,262.090 164.682 C 262.520 164.380,263.418 163.987,264.083 163.808 C 264.749 163.629,265.455 163.289,265.651 163.052 C 265.847 162.816,266.403 162.536,266.887 162.430 C 267.372 162.323,267.937 161.996,268.144 161.702 C 268.351 161.408,268.793 161.082,269.127 160.976 C 269.462 160.871,270.205 160.380,270.780 159.885 C 271.355 159.390,272.199 158.679,272.654 158.305 C 273.110 157.932,273.651 157.450,273.856 157.236 C 274.062 157.021,274.405 156.683,274.620 156.484 C 275.046 156.090,275.282 155.838,276.634 154.340 C 277.531 153.346,278.280 152.434,279.611 150.714 C 279.994 150.218,280.410 149.474,280.534 149.061 C 280.659 148.648,281.003 148.039,281.300 147.708 C 281.597 147.378,281.988 146.548,282.169 145.865 C 282.350 145.182,282.690 144.464,282.924 144.270 C 283.158 144.076,283.439 143.350,283.548 142.657 C 283.658 141.964,284.024 140.856,284.361 140.195 C 285.830 137.319,285.791 122.477,284.309 120.078 C 283.972 119.533,283.696 118.776,283.696 118.395 C 283.696 117.778,282.314 114.473,281.565 113.298 C 281.407 113.050,281.000 112.265,280.662 111.552 C 280.323 110.840,279.853 110.183,279.617 110.093 C 279.382 110.002,279.189 109.770,279.189 109.577 C 279.189 108.563,273.360 102.269,271.101 100.843 C 270.503 100.466,269.830 99.936,269.606 99.665 C 269.381 99.395,269.032 99.174,268.830 99.174 C 268.628 99.174,268.217 98.902,267.917 98.570 C 267.616 98.238,266.851 97.811,266.217 97.621 C 265.583 97.431,265.064 97.178,265.064 97.059 C 265.064 96.811,263.833 96.310,262.509 96.019 C 262.014 95.910,261.391 95.625,261.125 95.386 C 260.860 95.147,259.778 94.810,258.721 94.638 C 257.664 94.465,256.529 94.198,256.198 94.043 C 254.463 93.231,246.397 92.860,243.342 93.452 M122.250 94.842 C 124.513 95.104,126.907 95.521,127.570 95.767 C 128.233 96.013,129.452 96.423,130.278 96.678 C 131.104 96.933,131.983 97.306,132.231 97.507 C 132.479 97.708,133.156 98.052,133.734 98.272 C 134.313 98.492,134.989 98.836,135.237 99.037 C 135.485 99.237,136.161 99.640,136.739 99.931 C 137.318 100.221,137.859 100.542,137.941 100.644 C 138.024 100.745,138.864 101.414,139.807 102.131 C 141.608 103.500,145.424 107.446,146.590 109.145 C 148.224 111.527,148.863 112.603,149.145 113.448 C 149.311 113.944,149.620 114.553,149.833 114.801 C 150.443 115.513,151.787 119.258,152.260 121.563 C 152.497 122.720,152.900 124.613,153.155 125.770 C 153.963 129.437,153.045 138.229,151.501 141.619 C 151.151 142.388,150.862 143.194,150.859 143.410 C 150.848 144.288,148.408 148.711,146.351 151.581 C 141.476 158.384,132.157 164.199,124.418 165.266 C 123.178 165.437,121.555 165.710,120.811 165.871 C 117.834 166.518,108.741 165.345,105.551 163.903 C 104.678 163.508,103.852 163.186,103.714 163.186 C 103.064 163.186,97.786 160.232,96.732 159.279 C 96.457 159.031,95.664 158.422,94.969 157.926 C 93.567 156.927,89.324 152.417,88.721 151.286 C 88.509 150.889,88.215 150.563,88.068 150.563 C 87.921 150.563,87.648 150.101,87.461 149.536 C 87.274 148.970,86.930 148.348,86.695 148.153 C 84.501 146.333,81.406 134.149,81.886 129.226 C 82.321 124.764,83.036 120.579,83.574 119.346 C 83.889 118.622,84.147 117.901,84.147 117.743 C 84.147 117.438,85.826 113.381,86.187 112.811 C 86.979 111.564,89.505 107.912,89.867 107.489 C 92.261 104.697,97.157 100.467,98.979 99.616 C 99.499 99.373,100.804 98.699,101.878 98.118 C 102.953 97.538,104.440 96.866,105.184 96.627 C 105.928 96.387,107.145 95.983,107.889 95.729 C 109.202 95.280,114.687 94.482,116.994 94.404 C 117.622 94.382,119.987 94.580,122.250 94.842 M254.766 94.942 C 257.169 95.281,262.306 96.881,263.711 97.727 C 264.207 98.025,264.766 98.270,264.952 98.271 C 265.642 98.273,269.815 101.027,271.672 102.705 C 272.084 103.077,272.516 103.381,272.633 103.381 C 272.749 103.381,273.765 104.442,274.890 105.738 C 277.520 108.769,277.777 109.094,278.454 110.240 C 278.764 110.765,279.109 111.195,279.221 111.195 C 279.333 111.195,279.503 111.509,279.599 111.893 C 279.696 112.277,280.102 113.074,280.503 113.665 C 280.904 114.256,281.329 115.057,281.448 115.446 C 281.567 115.835,281.902 116.694,282.192 117.355 C 282.482 118.017,282.886 119.301,283.089 120.210 C 283.293 121.119,283.643 122.297,283.868 122.828 C 285.976 127.804,284.089 140.088,280.075 147.526 C 278.537 150.375,277.404 152.007,275.743 153.766 C 275.407 154.122,274.978 154.595,274.791 154.818 C 274.109 155.627,271.202 158.267,270.361 158.840 C 264.928 162.544,261.125 164.159,254.849 165.431 C 250.997 166.211,247.469 166.378,244.929 165.901 C 238.381 164.671,237.119 164.276,232.757 162.097 C 230.106 160.772,228.795 160.001,227.651 159.095 C 227.154 158.702,226.357 158.075,225.881 157.702 C 224.306 156.470,220.705 152.546,219.752 151.024 C 219.335 150.357,218.894 149.745,218.773 149.662 C 216.821 148.330,213.528 138.309,213.195 132.682 C 212.858 127.002,214.072 119.821,216.066 115.696 C 217.341 113.058,218.290 111.333,218.908 110.528 C 219.252 110.079,219.940 109.146,220.436 108.454 C 221.791 106.564,225.674 102.687,227.133 101.768 C 227.841 101.321,228.653 100.724,228.938 100.441 C 229.761 99.620,234.913 97.176,237.866 96.205 C 240.217 95.433,241.759 95.116,245.980 94.541 C 247.301 94.362,252.259 94.588,254.766 94.942 M152.517 268.080 C 152.021 268.218,150.736 268.565,149.662 268.852 C 147.812 269.347,146.282 270.140,144.524 271.515 C 142.195 273.338,141.247 274.229,141.247 274.593 C 141.247 274.817,141.049 275.076,140.806 275.169 C 140.271 275.375,139.093 277.407,137.867 280.240 C 136.757 282.808,136.192 291.811,137.141 291.811 C 137.530 291.811,137.625 291.204,137.716 288.129 C 137.908 281.672,139.326 277.825,142.758 274.446 C 145.322 271.922,145.595 271.722,148.112 270.520 L 150.413 269.421 196.995 269.271 C 247.689 269.108,248.569 269.128,251.540 270.548 C 255.168 272.281,259.092 275.972,259.806 278.321 C 259.925 278.716,260.267 279.444,260.564 279.940 C 261.367 281.278,261.758 283.957,261.758 288.109 C 261.758 291.610,261.791 291.811,262.359 291.811 C 263.907 291.811,262.812 280.729,261.053 278.598 C 260.843 278.344,260.500 277.734,260.289 277.242 C 259.760 276.007,257.051 272.873,255.597 271.814 C 252.385 269.472,251.945 269.290,246.582 268.068 C 245.067 267.724,153.762 267.735,152.517 268.080 M215.404 291.059 C 215.325 291.473,215.376 291.811,215.519 291.811 C 215.661 291.811,215.778 291.473,215.778 291.059 C 215.778 290.646,215.726 290.308,215.662 290.308 C 215.599 290.308,215.483 290.646,215.404 291.059 " stroke="none" fill="#81542d" fill-rule="evenodd"></path><path id="path4" d="M151.165 270.147 C 150.751 270.259,149.805 270.645,149.061 271.006 C 148.317 271.367,147.544 271.665,147.343 271.669 C 147.143 271.672,146.834 271.946,146.657 272.276 C 146.480 272.607,146.190 272.878,146.013 272.878 C 145.126 272.878,140.646 277.612,140.646 278.549 C 140.646 278.689,140.290 279.329,139.854 279.971 C 139.091 281.096,139.057 281.326,138.910 286.474 L 138.757 291.811 140.753 291.811 L 142.750 291.811 142.750 288.861 C 142.750 281.988,144.952 277.888,150.095 275.186 L 151.916 274.230 199.699 274.230 L 247.483 274.230 248.986 274.936 C 254.429 277.492,256.477 280.819,256.826 287.678 L 257.037 291.811 259.140 291.811 L 261.242 291.811 261.071 287.077 C 260.916 282.758,260.833 282.215,260.127 280.866 C 259.702 280.053,259.354 279.120,259.354 278.794 C 259.354 278.467,259.079 277.915,258.743 277.567 C 258.408 277.219,257.765 276.517,257.316 276.007 C 255.040 273.421,254.509 272.878,254.259 272.878 C 254.110 272.878,253.756 272.646,253.474 272.364 C 252.847 271.737,250.022 270.513,248.385 270.159 C 246.985 269.856,152.283 269.844,151.165 270.147 M216.167 278.520 C 215.638 278.971,214.631 280.421,213.929 281.743 C 213.227 283.065,212.276 284.823,211.816 285.650 C 208.591 291.447,208.629 291.857,212.384 291.746 C 215.208 291.663,215.308 291.636,215.509 290.909 L 215.718 290.158 215.748 290.984 L 215.778 291.811 218.933 291.811 L 222.089 291.811 222.089 290.778 C 222.089 290.211,221.942 289.365,221.763 288.900 C 221.584 288.435,221.252 286.398,221.026 284.373 C 220.347 278.295,218.728 276.344,216.167 278.520 M166.191 285.031 C 165.377 285.475,162.885 290.119,162.885 291.191 C 162.885 291.788,163.044 291.811,167.134 291.811 L 171.384 291.811 171.213 290.157 C 170.785 286.012,168.560 283.741,166.191 285.031 " stroke="none" fill="#041a56" fill-rule="evenodd"></path></g></svg>